<svg width="1083.2650390625px" height="203.8551025390625px" xmlns="http://www.w3.org/2000/svg" viewBox="-291.63251953124995 -26.92755126953125 1083.2650390625 203.8551025390625" style="background-image: none;" preserveAspectRatio="xMidYMid"><defs><filter id="editing-hover" x="-100%" y="-100%" width="300%" height="300%"><feFlood flood-color="#052b4a" result="flood"></feFlood><feComposite operator="in" in2="SourceAlpha" in="flood" result="shadow"></feComposite><feOffset dx="-4" dy="-4" in="SourceGraphic" result="offset-1"></feOffset><feOffset dx="4" dy="4" in="shadow" result="offset-2"></feOffset><feMerge><feMergeNode in="offset-2"></feMergeNode><feMergeNode in="offset-1"></feMergeNode></feMerge></filter></defs><g filter="url(#editing-hover)"><g transform="translate(-144.28500604629517, 117.90437316894531)"><path d="M11.25-56.49L11.25-56.49L11.25-56.49Q7.31-59.51 7.31-65.95L7.31-65.95L7.31-65.95Q7.31-72.38 11.54-75.75L11.54-75.75L11.54-75.75Q15.78-79.11 23.08-79.11L23.08-79.11L23.08-79.11Q27.72-79.11 38.74-77.49L38.74-77.49L46.63-76.33L46.63-76.33Q50.58-75.86 54.69-75.86L54.69-75.86L54.69-75.86Q58.81-75.86 61.60-77.60L61.60-77.60L61.60-77.60Q65.77-73.89 65.77-68.56L65.77-68.56L65.77-68.56Q65.77-63.22 61.02-59.39L61.02-59.39L61.02-59.39Q56.14-55.33 49.88-55.33L49.88-55.33L49.88-55.33Q46.86-55.33 41.99-56.14L41.99-56.14L41.99-56.14Q36.31-38.28 36.31-25.87L36.31-25.87L36.31-25.87Q36.31-13.46 42.57-6.96L42.57-6.96L42.57-6.96Q39.67-1.74 35.38 0.29L35.38 0.29L35.38 0.29Q31.09 2.32 24.65 2.32L24.65 2.32L24.65 2.32Q18.21 2.32 14.21-1.22L14.21-1.22L14.21-1.22Q10.21-4.76 10.21-12.06L10.21-12.06L10.21-12.06Q10.21-20.53 14.85-34.45L14.85-34.45L14.85-34.45Q19.49-48.26 26.45-58.81L26.45-58.81L26.45-58.81Q23.08-59.16 19.60-59.16L19.60-59.16L19.60-59.16Q12.41-59.16 11.25-56.49ZM120.41-12.88L120.41-12.88L120.41-12.88Q120.41-7.77 125.63-6.26L125.63-6.26L125.63-6.26Q124.35-1.97 119.36 0.35L119.36 0.35L119.36 0.35Q115.19 2.32 110.61 2.32L110.61 2.32L110.61 2.32Q106.02 2.32 103.65 1.10L103.65 1.10L103.65 1.10Q101.27-0.12 99.99-2.09L99.99-2.09L99.99-2.09Q97.90-5.10 97.90-10.79L97.90-10.79L97.90-10.79Q97.90-14.15 99.76-23.43L99.76-23.43L101.38-32.25L101.38-32.25Q103.36-42.34 103.36-46.05L103.36-46.05L103.36-46.05Q103.36-52.55 99.76-52.55L99.76-52.55L99.76-52.55Q95.24-52.55 92.34-45.94L92.34-45.94L92.34-45.94Q91.18-43.38 90.36-39.56L90.36-39.56L82.48 0L59.16 2.32L75.52-81.20L98.83-83.52L97.90-78.88L97.90-78.88Q94.66-61.02 91.87-54.98L91.87-54.98L91.87-54.98Q98.37-61.48 110.32-61.48L110.32-61.48L110.32-61.48Q122.96-61.48 125.28-53.13L125.28-53.13L125.28-53.13Q126.09-50.46 126.09-48.14L126.09-48.14L126.09-48.14Q126.09-45.82 125.92-44.02L125.92-44.02L125.92-44.02Q125.74-42.22 125.16-38.98L125.16-38.98L123.66-30.62L120.99-17.52L120.99-17.52Q120.41-14.85 120.41-12.88ZM182.00-19.60L182.00-19.60L182.00-19.60Q184.90-17.63 184.90-13.28L184.90-13.28L184.90-13.28Q184.90-8.93 182.70-6.15L182.70-6.15L182.70-6.15Q180.50-3.36 176.90-1.51L176.90-1.51L176.90-1.51Q169.48 2.32 161.47 2.32L161.47 2.32L161.47 2.32Q153.47 2.32 148.77 0.58L148.77 0.58L148.77 0.58Q144.07-1.16 140.94-4.41L140.94-4.41L140.94-4.41Q134.79-10.56 134.79-21.81L134.79-21.81L134.79-21.81Q134.79-39.32 144.30-50.00L144.30-50.00L144.30-50.00Q154.51-61.48 172.26-61.48L172.26-61.48L172.26-61.48Q183.28-61.48 188.73-56.84L188.73-56.84L188.73-56.84Q192.79-53.36 192.79-47.68L192.79-47.68L192.79-47.68Q192.79-27.26 157.53-27.26L157.53-27.26L157.53-27.26Q157.06-24.24 157.06-21.69L157.06-21.69L157.06-21.69Q157.06-16.36 159.44-14.33L159.44-14.33L159.44-14.33Q161.82-12.30 166.23-12.30L166.23-12.30L166.23-12.30Q170.64-12.30 175.33-14.33L175.33-14.33L175.33-14.33Q180.03-16.36 182.00-19.60ZM158.34-32.25L158.34-32.25L158.34-32.25Q166.58-32.25 171.33-37.35L171.33-37.35L171.33-37.35Q176.09-42.22 176.09-50.00L176.09-50.00L176.09-50.00Q176.09-52.66 175.10-54.11L175.10-54.11L175.10-54.11Q174.12-55.56 172.14-55.56L172.14-55.56L172.14-55.56Q170.17-55.56 168.49-54.81L168.49-54.81L168.49-54.81Q166.81-54.06 165.07-51.50L165.07-51.50L165.07-51.50Q160.78-45.70 158.34-32.25ZM244.64 0L219.36 0L234.09-76.56L259.61-76.56L244.64 0ZM311.23 2.32L311.23 2.32L311.23 2.32Q297.19 2.32 297.19-8.58L297.19-8.58L297.19-8.58Q297.31-11.60 298.24-16.70L298.24-16.70L300.32-27.38L300.32-27.38Q303.46-42.46 303.46-45.82L303.46-45.82L303.46-45.82Q303.46-52.55 299.51-52.55L299.51-52.55L299.51-52.55Q292.90-52.55 289.42-35.26L289.42-35.26L282.58 0L259.26 2.32L271.32-59.28L290.35-61.48L288.49-50.11L288.49-50.11Q293.94-61.48 310.65-61.48L310.65-61.48L310.65-61.48Q318.77-61.48 322.19-58.06L322.19-58.06L322.19-58.06Q325.61-54.64 325.61-46.98L325.61-46.98L325.61-46.98Q325.61-39.79 321.90-22.97L321.90-22.97L321.90-22.97Q320.16-15.43 320.16-12.59L320.16-12.59L320.16-12.59Q320.16-9.74 321.73-8.12L321.73-8.12L321.73-8.12Q323.29-6.50 325.61-6.26L325.61-6.26L325.61-6.26Q324.45-2.32 320.45 0L320.45 0L320.45 0Q316.45 2.32 311.23 2.32ZM391.85-48.26L391.85-48.26L391.85-48.26Q391.85-43.38 387.79-40.37L387.79-40.37L387.79-40.37Q383.73-37.35 377.12-37.35L377.12-37.35L377.12-37.35Q374.33-37.35 372.71-38.16L372.71-38.16L372.71-38.16Q373.98-41.18 374.39-44.95L374.39-44.95L374.39-44.95Q374.80-48.72 374.80-49.76L374.80-49.76L374.80-49.76Q374.80-54.64 371.43-54.64L371.43-54.64L371.43-54.64Q369.11-54.64 366.50-51.74L366.50-51.74L366.50-51.74Q363.89-48.84 361.69-44.31L361.69-44.31L361.69-44.31Q356.82-33.87 356.82-23.32L356.82-23.32L356.82-23.32Q356.82-17.52 359.02-14.91L359.02-14.91L359.02-14.91Q361.22-12.30 366.10-12.30L366.10-12.30L366.10-12.30Q372.82-12.30 378.16-17.86L378.16-17.86L378.16-17.86Q379.67-19.60 380.48-21.58L380.48-21.58L380.48-21.58Q384.89-19.26 384.89-12.88L384.89-12.88L384.89-12.88Q384.89-6.38 377.70-2.09L377.70-2.09L377.70-2.09Q370.27 2.32 358.44 2.32L358.44 2.32L358.44 2.32Q334.89 2.32 334.89-22.62L334.89-22.62L334.89-22.62Q334.89-40.83 345.22-51.27L345.22-51.27L345.22-51.27Q355.19-61.48 373.52-61.48L373.52-61.48L373.52-61.48Q391.85-61.48 391.85-48.26ZM432.22-4.87L432.22-4.87L432.22-4.87Q426.65 2.32 412.84 2.32L412.84 2.32L412.84 2.32Q405.65 2.32 400.43-2.03L400.43-2.03L400.43-2.03Q395.21-6.38 395.21-12.64L395.21-12.64L395.21-12.64Q395.21-16.12 395.56-17.86L395.56-17.86L403.33-59.16L426.88-61.48L418.41-16.70L418.41-16.70Q417.95-14.15 417.95-12.64L417.95-12.64L417.95-12.64Q417.95-5.92 422.01-5.92L422.01-5.92L422.01-5.92Q426.53-5.92 429.78-12.06L429.78-12.06L429.78-12.06Q430.82-14.04 431.29-16.59L431.29-16.59L439.52-59.16L462.38-61.48L453.79-16.24L453.79-16.24Q453.44-14.50 453.44-12.64L453.44-12.64L453.44-12.64Q453.44-10.79 454.49-8.76L454.49-8.76L454.49-8.76Q455.53-6.73 458.90-6.26L458.90-6.26L458.90-6.26Q458.20-3.48 455.76-1.62L455.76-1.62L455.76-1.62Q450.66 2.32 445.15 2.32L445.15 2.32L445.15 2.32Q439.64 2.32 436.39 0.35L436.39 0.35L436.39 0.35Q433.14-1.62 432.22-4.87ZM467.13-5.57L467.13-5.57L481.52-81.20L505.06-83.52L501.47-65.77L501.47-65.77Q500.19-60.32 498.57-56.49L498.57-56.49L498.57-56.49Q501.12-59.74 506.69-61.02L506.69-61.02L506.69-61.02Q508.31-61.48 510.28-61.48L510.28-61.48L510.28-61.48Q521.07-61.48 526.99-54.93L526.99-54.93L526.99-54.93Q532.90-48.37 532.90-35.73L532.90-35.73L532.90-35.73Q532.90-19.26 523.51-8.93L523.51-8.93L523.51-8.93Q513.42 2.32 495.09 2.32L495.09 2.32L495.09 2.32Q482.44 2.32 472.93-1.86L472.93-1.86L472.93-1.86Q469.57-3.36 467.13-5.57ZM496.60-40.60L490.45-6.61L490.45-6.61Q492.88-4.52 495.90-4.52L495.90-4.52L495.90-4.52Q498.92-4.52 500.66-5.68L500.66-5.68L500.66-5.68Q502.40-6.84 503.67-9.16L503.67-9.16L503.67-9.16Q507.15-15.43 509.94-34.57L509.94-34.57L509.94-34.57Q510.75-40.02 510.75-45.47L510.75-45.47L510.75-45.47Q510.75-50.92 509.53-52.66L509.53-52.66L509.53-52.66Q508.31-54.40 505.99-54.40L505.99-54.40L505.99-54.40Q498.92-54.40 496.60-40.60L496.60-40.60ZM544.91-3.48L544.91-3.48L544.91-3.48Q542.18-6.50 540.97-11.25L540.97-11.25L540.97-11.25Q539.75-16.01 539.75-23.78L539.75-23.78L539.75-23.78Q539.75-31.55 542.42-38.63L542.42-38.63L542.42-38.63Q545.08-45.70 549.96-50.81L549.96-50.81L549.96-50.81Q559.93-61.48 576.40-61.48L576.40-61.48L576.40-61.48Q582.32-61.48 586.61-59.51L586.61-59.51L606.45-61.48L597.86-16.24L597.86-16.24Q597.52-14.85 597.52-12.30L597.52-12.30L597.52-12.30Q597.52-9.74 599.08-8.12L599.08-8.12L599.08-8.12Q600.65-6.50 602.97-6.26L602.97-6.26L602.97-6.26Q601.81-2.32 597.57 0L597.57 0L597.57 0Q593.34 2.32 588.58 2.32L588.58 2.32L588.58 2.32Q583.83 2.32 580.64 0.52L580.64 0.52L580.64 0.52Q577.45-1.28 576.52-4.29L576.52-4.29L576.52-4.29Q574.66-1.39 570.72 0.46L570.72 0.46L570.72 0.46Q566.78 2.32 561.50 2.32L561.50 2.32L561.50 2.32Q556.22 2.32 551.93 0.93L551.93 0.93L551.93 0.93Q547.64-0.46 544.91-3.48ZM569.39-50.58L569.39-50.58L569.39-50.58Q568.05-48.49 566.89-44.95L566.89-44.95L566.89-44.95Q565.73-41.41 563.82-31.96L563.82-31.96L563.82-31.96Q561.90-22.50 561.90-15.78L561.90-15.78L561.90-15.78Q561.90-9.05 562.95-7.08L562.95-7.08L562.95-7.08Q563.99-5.10 565.85-5.10L565.85-5.10L565.85-5.10Q569.56-5.10 572.29-8.64L572.29-8.64L572.29-8.64Q575.01-12.18 576.06-18.44L576.06-18.44L582.20-52.43L582.20-52.43Q579.77-54.52 576.93-54.52L576.93-54.52L576.93-54.52Q574.08-54.52 572.40-53.59L572.40-53.59L572.40-53.59Q570.72-52.66 569.39-50.58ZM614.57-11.60L614.57-11.60L614.57-11.60Q614.57-14.73 616.19-22.62L616.19-22.62L622.34-53.94L615.50-53.94L615.96-57.42L615.96-57.42Q629.88-61.60 643.34-71.80L643.34-71.80L648.90-71.80L646.12-59.16L655.17-59.16L654.12-53.94L645.19-53.94L639.28-22.62L639.28-22.62Q637.77-15.43 637.77-12.99L637.77-12.99L637.77-12.99Q637.77-7.42 642.64-6.26L642.64-6.26L642.64-6.26Q641.48-2.32 637.30 0L637.30 0L637.30 0Q633.13 2.32 627.21 2.32L627.21 2.32L627.21 2.32Q621.30 2.32 617.93-1.39L617.93-1.39L617.93-1.39Q614.57-5.10 614.57-11.60ZM679.41 2.32L679.41 2.32L679.41 2.32Q653.89 2.32 653.89-21.69L653.89-21.69L653.89-21.69Q653.89-38.74 663.29-49.76L663.29-49.76L663.29-49.76Q673.26-61.48 690.55-61.48L690.55-61.48L690.55-61.48Q703.08-61.48 709.46-55.68L709.46-55.68L709.46-55.68Q715.84-49.88 715.84-37.70L715.84-37.70L715.84-37.70Q715.84-19.14 705.86-8.35L705.86-8.35L705.86-8.35Q696.12 2.32 679.41 2.32ZM682.43-48.14L682.43-48.14L682.43-48.14Q681.04-45.01 679.93-40.31L679.93-40.31L679.93-40.31Q678.83-35.61 677.44-28.19L677.44-28.19L677.44-28.19Q676.05-20.76 676.05-11.60L676.05-11.60L676.05-11.60Q676.05-8.58 677.03-6.61L677.03-6.61L677.03-6.61Q678.02-4.64 680.69-4.64L680.69-4.64L680.69-4.64Q683.36-4.64 685.04-5.92L685.04-5.92L685.04-5.92Q686.72-7.19 688.00-10.21L688.00-10.21L688.00-10.21Q690.32-15.54 692.17-25.46L692.17-25.46L692.17-25.46Q694.03-35.38 694.20-39.67L694.20-39.67L694.20-39.67Q694.38-43.96 694.38-47.15L694.38-47.15L694.38-47.15Q694.38-50.34 693.45-52.43L693.45-52.43L693.45-52.43Q692.52-54.52 689.91-54.52L689.91-54.52L689.91-54.52Q687.30-54.52 685.56-52.90L685.56-52.90L685.56-52.90Q683.82-51.27 682.43-48.14ZM758.99-32.60L758.99-32.60L758.99-32.60Q763.16-40.02 763.16-47.56L763.16-47.56L763.16-47.56Q763.16-52.55 759.57-52.55L759.57-52.55L759.57-52.55Q756.78-52.55 753.88-47.79L753.88-47.79L753.88-47.79Q750.87-43.04 749.94-36.89L749.94-36.89L743.91 0L719.90 2.32L731.73-59.16L750.87-61.48L748.78-49.76L748.78-49.76Q754.46-61.48 767.22-61.48L767.22-61.48L767.22-61.48Q773.95-61.48 777.61-58L777.61-58L777.61-58Q781.26-54.52 781.26-47.39L781.26-47.39L781.26-47.39Q781.26-40.25 776.56-35.73L776.56-35.73L776.56-35.73Q771.86-31.20 763.86-31.20L763.86-31.20L763.86-31.20Q760.38-31.20 758.99-32.60Z" fill="#ffd5af"></path></g></g><style>text {
  font-size: 64px;
  font-family: Arial Black;
  dominant-baseline: central;
  text-anchor: middle;
}</style></svg>